<svg xmlns="http://www.w3.org/2000/svg" xmlns:xlink="http://www.w3.org/1999/xlink" viewBox="0 0 395.82 65.03"><defs><style>.cls-1{fill:url(#Gradiente_sem_nome_149);}.cls-2{fill:#f2f2f2;}</style><linearGradient id="Gradiente_sem_nome_149" y1="32.52" x2="395.82" y2="32.52" gradientUnits="userSpaceOnUse"><stop offset="0" stop-color="#58b75b"/><stop offset="1" stop-color="#336fbc"/></linearGradient></defs><title>BT_START_CHAT</title><g id="Camada_2" data-name="Camada 2"><g id="Layer_10" data-name="Layer 10"><rect class="cls-1" width="395.82" height="65.03" rx="16.78"/><path class="cls-2" d="M64,39.2a2.33,2.33,0,0,0-.91-2,11.8,11.8,0,0,0-3.26-1.45,23.79,23.79,0,0,1-3.73-1.5q-3.74-2-3.74-5.45a5.3,5.3,0,0,1,1-3.18,6.51,6.51,0,0,1,2.89-2.18,10.85,10.85,0,0,1,4.21-.78,9.88,9.88,0,0,1,4.2.85A6.66,6.66,0,0,1,67.52,26a6.27,6.27,0,0,1,1,3.53H64a3,3,0,0,0-1-2.35,3.89,3.89,0,0,0-2.67-.84,4.21,4.21,0,0,0-2.58.7,2.21,2.21,0,0,0-.92,1.85A2.12,2.12,0,0,0,58,30.64,12.12,12.12,0,0,0,61.14,32a13.68,13.68,0,0,1,5.63,2.88,5.75,5.75,0,0,1,1.77,4.29,5.31,5.31,0,0,1-2.16,4.48,9.45,9.45,0,0,1-5.81,1.62A11.22,11.22,0,0,1,56,44.34a7.36,7.36,0,0,1-3.18-2.54,6.53,6.53,0,0,1-1.09-3.75h4.54q0,3.64,4.35,3.64A4.2,4.2,0,0,0,63.09,41,2.13,2.13,0,0,0,64,39.2Z"/><path class="cls-2" d="M88.15,26.66H81.42V45H76.89V26.66H70.25V23h17.9Z"/><path class="cls-2" d="M101.33,40.44H93.39L91.88,45H87.06l8.19-22h4.19l8.23,22h-4.82Zm-6.72-3.67h5.5l-2.77-8.23Z"/><path class="cls-2" d="M117.86,36.92h-3.61v8h-4.53V23h8.17a9.27,9.27,0,0,1,6,1.73A6,6,0,0,1,126,29.63a6.75,6.75,0,0,1-1,3.75,6.61,6.61,0,0,1-3,2.39l4.75,9V45H122Zm-3.61-3.67h3.66a3.75,3.75,0,0,0,2.64-.87,3.09,3.09,0,0,0,.93-2.39,3.31,3.31,0,0,0-.88-2.44,3.64,3.64,0,0,0-2.71-.89h-3.64Z"/><path class="cls-2" d="M145.24,26.66h-6.73V45H134V26.66h-6.64V23h17.9Z"/><path class="cls-2" d="M167,40.44h-7.94L157.58,45h-4.82l8.18-22h4.2l8.23,22h-4.82Zm-6.72-3.67h5.5L163,28.54Z"/><path class="cls-2" d="M201,45h-4.52l-8.82-14.46V45h-4.53V23h4.53l8.83,14.49V23H201Z"/><path class="cls-2" d="M218.17,35.44h-8.69v5.89h10.2V45H205V23h14.7v3.67H209.48v5.23h8.69Z"/><path class="cls-2" d="M239.46,38.63l3-15.64h4.51l-4.87,22H237.5l-3.58-14.71L230.34,45h-4.56l-4.87-22h4.51l3,15.61L232,23h3.83Z"/><path class="cls-2" d="M274.33,37.65a7.75,7.75,0,0,1-2.62,5.58,9.18,9.18,0,0,1-6.22,2,8.26,8.26,0,0,1-6.65-2.85c-1.62-1.89-2.43-4.5-2.43-7.81V33.27a13.1,13.1,0,0,1,1.12-5.59,8.34,8.34,0,0,1,3.19-3.7,10,10,0,0,1,10.95.74,8.36,8.36,0,0,1,2.69,5.72h-4.53a4.58,4.58,0,0,0-1.18-3.08,4.39,4.39,0,0,0-3.1-1A3.85,3.85,0,0,0,262.16,28a9.09,9.09,0,0,0-1.16,5v1.66a9.69,9.69,0,0,0,1.08,5.2,3.78,3.78,0,0,0,3.41,1.65,4.48,4.48,0,0,0,3.13-1,4.32,4.32,0,0,0,1.18-3Z"/><path class="cls-2" d="M295.19,45h-4.52V35.55h-8.84V45h-4.52V23h4.52v8.9h8.84V23h4.52Z"/><path class="cls-2" d="M311.83,40.44h-7.94L302.38,45h-4.82l8.19-22h4.19l8.23,22h-4.81Zm-6.72-3.67h5.5l-2.76-8.23Z"/><path class="cls-2" d="M335,26.66h-6.74V45H323.7V26.66h-6.65V23H335Z"/></g></g></svg>