<svg xmlns="http://www.w3.org/2000/svg" xmlns:xlink="http://www.w3.org/1999/xlink" viewBox="0 0 73.32 73.32"><defs><style>.cls-1{fill:none;stroke-miterlimit:10;stroke-width:4px;stroke:url(#Gradiente_sem_nome_149);}</style><linearGradient id="Gradiente_sem_nome_149" y1="36.66" x2="73.32" y2="36.66" gradientUnits="userSpaceOnUse"><stop offset="0" stop-color="#58b75b"/><stop offset="1" stop-color="#336fbc"/></linearGradient></defs><title>STEP2</title><g id="Camada_2" data-name="Camada 2"><g id="Camada_2-2" data-name="Camada 2"><path d="M46.11,48v2.67H29.35V48.31L37.74,39a35.25,35.25,0,0,0,2.4-2.93,8.8,8.8,0,0,0,1.19-2.16,5.75,5.75,0,0,0,.35-2,5.07,5.07,0,0,0-.52-2.29A4,4,0,0,0,39.64,28a4.57,4.57,0,0,0-2.43-.61,5.58,5.58,0,0,0-2.84.66,4.15,4.15,0,0,0-1.69,1.83,6.17,6.17,0,0,0-.57,2.71H28.86a8.39,8.39,0,0,1,.95-4,7.06,7.06,0,0,1,2.81-2.85,9.17,9.17,0,0,1,4.59-1.07,9.25,9.25,0,0,1,4.15.86A6.22,6.22,0,0,1,44,28a6.87,6.87,0,0,1,.92,3.59,7.36,7.36,0,0,1-.38,2.28,11.93,11.93,0,0,1-1,2.29A19.45,19.45,0,0,1,42,38.36c-.58.74-1.19,1.47-1.85,2.18L33.27,48Z"/></g><g id="Layer_10" data-name="Layer 10"><circle class="cls-1" cx="36.66" cy="36.66" r="34.66"/></g></g></svg>