<svg xmlns="http://www.w3.org/2000/svg" xmlns:xlink="http://www.w3.org/1999/xlink" viewBox="0 0 73.32 73.32"><defs><style>.cls-1{fill:none;stroke-miterlimit:10;stroke-width:4px;stroke:url(#Gradiente_sem_nome_149);}</style><linearGradient id="Gradiente_sem_nome_149" y1="36.66" x2="73.32" y2="36.66" gradientUnits="userSpaceOnUse"><stop offset="0" stop-color="#58b75b"/><stop offset="1" stop-color="#336fbc"/></linearGradient></defs><title>STEP3</title><g id="Camada_2" data-name="Camada 2"><g id="Camada_2-2" data-name="Camada 2"><path d="M34.58,38.93V37h2.78a12.13,12.13,0,0,1,4,.58,6.6,6.6,0,0,1,2.53,1.55,5.64,5.64,0,0,1,1.3,2.12,7.38,7.38,0,0,1,.38,2.29A8,8,0,0,1,45,46.7a6.6,6.6,0,0,1-1.71,2.35,7.32,7.32,0,0,1-2.57,1.46A10.11,10.11,0,0,1,37.5,51a10.37,10.37,0,0,1-3.14-.47,8.25,8.25,0,0,1-2.59-1.38A6.45,6.45,0,0,1,30,46.91a7,7,0,0,1-.63-3h3.25a4.57,4.57,0,0,0,.59,2.34,4,4,0,0,0,1.69,1.56,5.68,5.68,0,0,0,2.59.55,5.85,5.85,0,0,0,2.58-.52,3.73,3.73,0,0,0,1.67-1.57,5.45,5.45,0,0,0,.59-2.66A4.76,4.76,0,0,0,41.67,41a4,4,0,0,0-1.89-1.53,7.45,7.45,0,0,0-2.88-.5Zm0-2.68H36.9a6.23,6.23,0,0,0,2.83-.57,3.89,3.89,0,0,0,1.67-1.56A4.62,4.62,0,0,0,42,31.88a5.56,5.56,0,0,0-.49-2.48A3.28,3.28,0,0,0,40,27.89a5.42,5.42,0,0,0-2.5-.51,5.28,5.28,0,0,0-2.41.53,4.08,4.08,0,0,0-1.64,1.52,4.47,4.47,0,0,0-.59,2.32H29.59a6.62,6.62,0,0,1,1-3.55,7.17,7.17,0,0,1,2.76-2.55,8.72,8.72,0,0,1,4.14-.95,9.6,9.6,0,0,1,4.07.82A6.13,6.13,0,0,1,44.25,28a7.57,7.57,0,0,1,1,4A5.45,5.45,0,0,1,44.77,34a6.27,6.27,0,0,1-1.39,2.05A7.38,7.38,0,0,1,41,37.62a9.63,9.63,0,0,1-3.59.6H34.58Z"/></g><g id="Layer_10" data-name="Layer 10"><circle class="cls-1" cx="36.66" cy="36.66" r="34.66"/></g></g></svg>